<svg xmlns="http://www.w3.org/2000/svg" xmlns:xlink="http://www.w3.org/1999/xlink" version="1.1" width="256" height="256" viewBox="0 0 256 256" xml:space="preserve">
<g style="stroke: none; stroke-width: 0; stroke-dasharray: none; stroke-linecap: butt; stroke-linejoin: miter; stroke-miterlimit: 10; fill: none; fill-rule: nonzero; opacity: 1;" transform="translate(1.4065934065934016 1.4065934065934016) scale(2.81 2.81)">
	<circle cx="45" cy="45" r="45" style="stroke: none; stroke-width: 1; stroke-dasharray: none; stroke-linecap: butt; stroke-linejoin: miter; stroke-miterlimit: 10; fill: rgb(252,89,244); fill-rule: nonzero; opacity: 1;" transform="  matrix(1 0 0 1 0 0) "/>
	<path d="M 35.642 69.685 c -3.652 0 -7.086 -1.422 -9.668 -4.005 c -5.331 -5.331 -5.331 -14.005 0 -19.336 L 48.888 23.43 c 2.008 -2.008 4.679 -3.115 7.519 -3.115 s 5.511 1.106 7.519 3.115 c 3.348 3.348 3.348 8.795 0 12.144 L 39.719 59.78 c -2.165 2.162 -5.683 2.16 -7.845 0 c -1.048 -1.048 -1.625 -2.441 -1.625 -3.923 s 0.577 -2.874 1.625 -3.922 l 22.273 -22.274 c 0.391 -0.391 1.023 -0.391 1.414 0 s 0.391 1.023 0 1.414 L 33.288 53.35 c -0.67 0.67 -1.039 1.561 -1.039 2.508 s 0.369 1.839 1.039 2.509 c 1.382 1.382 3.632 1.384 5.017 0 l 24.206 -24.207 c 2.568 -2.568 2.568 -6.747 0 -9.315 c -1.631 -1.631 -3.799 -2.529 -6.104 -2.529 s -4.474 0.898 -6.104 2.529 L 27.388 47.758 c -4.551 4.552 -4.55 11.957 0 16.508 c 2.205 2.205 5.136 3.419 8.254 3.419 s 6.049 -1.214 8.254 -3.419 l 22.428 -22.427 c 0.391 -0.391 1.023 -0.391 1.414 0 s 0.391 1.023 0 1.414 L 45.311 65.68 C 42.728 68.263 39.294 69.685 35.642 69.685 z" style="stroke: none; stroke-width: 1; stroke-dasharray: none; stroke-linecap: butt; stroke-linejoin: miter; stroke-miterlimit: 10; fill: rgb(255,255,255); fill-rule: nonzero; opacity: 1;" transform=" matrix(1 0 0 1 0 0) " stroke-linecap="round"/>
</g>
</svg>